#!OML:ASF H:\ManfredETheater\Project 1\Capture day 1\Session 1\subject.ASF
:FULLY-SPECIFIED
:DEGREES
76
root -0.417685 15.2738 2.18456 -187.791 3.78409 -173.494
lowerback 11.5527 3.48645 4.45107
upperback -1.11785 5.79908 3.87191
thorax -7.65166 2.82059 0.557289
lowerneck -12.6101 -3.63686 -4.40498
upperneck 12.9629 -4.51027 2.08001
head 6.1511 -2.27889 0.966337
rclavicle 3.04638e-014 -1.82882e-014
rhumerus -30.5074 11.1902 -83.0391
rradius 85.9232
rwrist 3.70221
rhand -25.6762 7.50017
rfingers 7.12502
rthumb 0.858514 -22.4779
lclavicle 3.04638e-014 -1.82882e-014
lhumerus -78.8017 -4.91119 72.0303
lradius 63.422
lwrist 3.33464
lhand -27.8089 -14.5507
lfingers 7.12502
lthumb -1.20137 15.4256
rfemur 5.81502 -9.01751 25.6419
rtibia 70.3555
rfoot -9.70462 8.16642
rtoes -38.8347
lfemur -48.0054 -0.171905 -15.1896
ltibia 49.9028
lfoot 5.67037 -4.36753
ltoes -7.68491
77
root -0.399246 15.2441 1.80398 -188.135 3.59274 -174.185
lowerback 11.785 3.50369 3.77964
upperback -1.06657 5.70203 3.70784
thorax -7.77421 2.78476 0.758717
lowerneck -13.1622 -3.6759 -4.54126
upperneck 12.9993 -4.51805 2.20168
head 6.26287 -2.27052 1.01709
rclavicle -3.33461e-014 2.38542e-014
rhumerus -30.8229 9.73723 -84.0488
rradius 86.7493
rwrist 3.58195
rhand -26.1313 7.36902
rfingers 7.12502
rthumb 0.418908 -22.6103
lclavicle -3.33461e-014 2.38542e-014
lhumerus -78.0049 -4.05236 71.7007
lradius 61.7773
lwrist 3.33849
lhand -27.9968 -14.3263
lfingers 7.12502
lthumb -1.38283 15.649
rfemur 5.50723 -9.12064 24.6224
rtibia 72.2252
rfoot -8.82668 7.55555
rtoes -38.6155
lfemur -48.2496 0.010216 -16.2279
ltibia 53.0229
lfoot 5.1384 -4.7163
ltoes -3.61477
78
root -0.383271 15.2235 1.43557 -188.482 3.55807 -174.75
lowerback 12.0041 3.56014 3.33974
upperback -0.925784 5.69262 3.57035
thorax -7.77325 2.78934 0.848843
lowerneck -13.8224 -3.72921 -4.67233
upperneck 13.0334 -4.52703 2.25659
head 6.39067 -2.26592 1.04409
rclavicle -6.3959e-014 -6.0033e-014
rhumerus -31.2048 8.22296 -85.0151
rradius 87.453
rwrist 3.14459
rhand -26.7253 7.1295
rfingers 7.12502
rthumb -0.154757 -22.8502
lclavicle -6.3959e-014 -6.0033e-014
lhumerus -76.6612 -3.13163 71.4954
lradius 59.6875
lwrist 3.44469
lhand -28.2063 -14.0211
lfingers 7.12502
lthumb -1.58512 15.9528
rfemur 4.9366 -9.12229 23.8193
rtibia 74.179
rfoot -8.43353 6.51297
rtoes -38.3316
lfemur -48.2353 0.299314 -17.0508
ltibia 55.8915
lfoot 3.65435 -4.77786
ltoes 0.334663
79
root -0.372079 15.217 1.07669 -188.821 3.70539 -175.141
lowerback 12.1963 3.64806 3.19377
upperback -0.742495 5.77592 3.47529
thorax -7.68829 2.83335 0.807182
lowerneck -14.4976 -3.77815 -4.78286
upperneck 13.0987 -4.52154 2.23398
head 6.52816 -2.26032 1.04404
rclavicle -5.77966e-014 -8.74653e-015
rhumerus -31.6698 6.7436 -85.9122
rradius 87.9413
rwrist 2.38306
rhand -27.4186 6.77114
rfingers 7.12502
rthumb -0.82438 -23.207
lclavicle -5.77966e-014 -8.74653e-015
lhumerus -74.8844 -2.16903 71.4124
lradius 57.191
lwrist 3.65681
lhand -28.3854 -13.6293
lfingers 7.12502
lthumb -1.75812 16.3432
rfemur 4.14365 -9.04495 23.2722
rtibia 76.1038
rfoot -8.45503 5.02632
rtoes -38.0196
lfemur -47.9316 0.692553 -17.6059
ltibia 58.4304
lfoot 1.66712 -4.58837
ltoes 2.04012
80
root -0.366635 15.2248 0.725735 -189.138 4.00022 -175.361
lowerback 12.3451 3.746 3.32434
upperback -0.562239 5.92207 3.42526
thorax -7.56013 2.90198 0.651232
lowerneck -15.0756 -3.80208 -4.85191
upperneck 13.1804 -4.48471 2.13027
head 6.65038 -2.24682 1.01594
rclavicle -6.75868e-015 4.37326e-014
rhumerus -32.2164 5.38003 -86.7216
rradius 88.1336
rwrist 1.34388
rhand -28.1291 6.31686
rfingers 7.12502
rthumb -1.51057 -23.6575
lclavicle -6.75868e-015 4.37326e-014
lhumerus -72.8244 -1.16058 71.4201
lradius 54.3847
lwrist 3.93519
lhand -28.4796 -13.2074
lfingers 7.12502
lthumb -1.84913 16.7643
rfemur 3.151 -8.95167 22.9596
rtibia 77.9288
rfoot -8.77171 3.12881
rtoes -37.5921
lfemur -47.3823 1.14388 -17.9116
ltibia 60.5894
lfoot -0.451523 -4.24105
ltoes 2.18255
81
root -0.367075 15.2438 0.382038 -189.412 4.39636 -175.477
lowerback 12.4351 3.84042 3.6325
upperback -0.422221 6.09467 3.40657
thorax -7.4265 2.97936 0.428576
lowerneck -15.4861 -3.78674 -4.8881
upperneck 13.2756 -4.40617 1.98014
head 6.74537 -2.21908 0.974554
rclavicle -6.09275e-014 -4.73108e-014
rhumerus -32.8297 4.1962 -87.4283
rradius 87.9782
rwrist 0.124795
rhand -28.7503 5.81734
rfingers 7.12502
rthumb -2.11058 -24.152
lclavicle -6.09275e-014 -4.73108e-014
lhumerus -70.6521 -0.0801194 71.4729
lradius 51.417
lwrist 4.21165
lhand -28.4703 -12.769
lfingers 7.12502
lthumb -1.84014 17.2028
rfemur 1.95681 -8.89494 22.7834
rtibia 79.6309
rfoot -9.2517 0.895266
rtoes -37.0329
lfemur -46.639 1.60607 -18.0649
ltibia 62.3842
lfoot -2.41213 -3.82864
ltoes 2.39599
82
root -0.370825 15.272 0.0469945 -189.633 4.78778 -175.618
lowerback 12.4763 3.9096 3.92174
upperback -0.349457 6.23017 3.39353
thorax -7.33883 3.03794 0.230896
lowerneck -15.7176 -3.72226 -4.88425
upperneck 13.4011 -4.27853 1.79907
head 6.8167 -2.17212 0.92462
rclavicle -6.19214e-014 -1.86858e-014
rhumerus -33.5044 3.24872 -88.0342
rradius 87.4856
rwrist -1.12769
rhand -29.1838 5.33048
rfingers 7.12502
rthumb -2.52921 -24.6343
lclavicle -6.19214e-014 -1.86858e-014
lhumerus -68.5243 1.1386 71.4969
lradius 48.4413
lwrist 4.35993
lhand -28.367 -12.4257
lfingers 7.12502
lthumb -1.74034 17.5469
rfemur 0.559455 -8.95855 22.5803
rtibia 81.2133
rfoot -9.80788 -1.55718
rtoes -36.3455
lfemur -45.7539 1.98314 -18.2282
ltibia 63.8387
lfoot -4.25329 -3.35154
ltoes 2.52308
